HIERARCHY
ROOT Hips
{
	OFFSET 0.000000 8.830580 0.000000
	CHANNELS 6 Xposition Yposition Zposition Zrotation Yrotation Xrotation 
	JOINT Spine
	{
		OFFSET 0.000000 0.010000 0.000000
		CHANNELS 3 Zrotation Yrotation Xrotation
		JOINT Spine1
		{
			OFFSET 0.000000 2.459130 0.000000
			CHANNELS 3 Zrotation Yrotation Xrotation
			JOINT Neck
			{
				OFFSET 0.000000 2.484630 0.000000
				CHANNELS 3 Zrotation Yrotation Xrotation
				JOINT Head_virtual
				{
					OFFSET 0.000000 0.000000 0.000000
					CHANNELS 3 Zrotation Yrotation Xrotation
					JOINT Head
					{
						OFFSET 0.000000 0.927525 0.000000
						CHANNELS 3 Zrotation Yrotation Xrotation
						End Site
						{
							OFFSET 0.000000 0.000000 0.000000
						}
					}
				}
				JOINT LeftUpArm_virtual
				{
					OFFSET 0.000000 0.000000 0.000000
					CHANNELS 3 Zrotation Yrotation Xrotation
					JOINT LeftUpArm
					{
						OFFSET 1.248820 0.000000 0.000000
						CHANNELS 3 Zrotation Yrotation Xrotation
						JOINT LeftForeArm
						{
							OFFSET 2.597580 0.000000 0.000000
							CHANNELS 3 Zrotation Yrotation Xrotation
							JOINT LeftHand
							{
								OFFSET 2.455420 0.000000 0.000000
								CHANNELS 3 Zrotation Yrotation Xrotation
								End Site
								{
									OFFSET 0.000000 0.000000 0.000000
								}
							}
						}
					}
				}
				JOINT RightUpArm_virtual
				{
					OFFSET -0.000000 -0.000000 -0.000000
					CHANNELS 3 Zrotation Yrotation Xrotation
					JOINT RightUpArm
					{
						OFFSET -1.248820 -0.000000 -0.000000
						CHANNELS 3 Zrotation Yrotation Xrotation
						JOINT RightForeArm
						{
							OFFSET -2.597580 -0.000000 -0.000000
							CHANNELS 3 Zrotation Yrotation Xrotation
							JOINT RightHand
							{
								OFFSET -2.455420 -0.000000 -0.000000
								CHANNELS 3 Zrotation Yrotation Xrotation
								End Site
								{
									OFFSET 0.000000 0.000000 0.000000
								}
							}
						}
					}
				}
			}
		}
	}
	JOINT LeftUpLeg
	{
		OFFSET 1.271939 0.000000 0.000000
		CHANNELS 3 Zrotation Yrotation Xrotation
		JOINT LeftLowLeg
		{
			OFFSET 0.000000 -4.342910 0.000000
			CHANNELS 3 Zrotation Yrotation Xrotation
			JOINT LeftFoot
			{
				OFFSET 0.000000 -4.487670 0.000000
				CHANNELS 3 Zrotation Yrotation Xrotation
				JOINT LeftToeBase
				{
					OFFSET 0.000000 0.000000 1.515070
					CHANNELS 3 Zrotation Yrotation Xrotation
					End Site
					{
						OFFSET 0.000000 0.000000 0.000000
					}
				}
			}
		}
	}
	JOINT RightUpLeg
	{
		OFFSET -1.271939 0.000000 0.000000
		CHANNELS 3 Zrotation Yrotation Xrotation
		JOINT RightLowLeg
		{
			OFFSET 0.000000 -4.342910 0.000000
			CHANNELS 3 Zrotation Yrotation Xrotation
			JOINT RightFoot
			{
				OFFSET 0.000000 -4.487670 0.000000
				CHANNELS 3 Zrotation Yrotation Xrotation
				JOINT RightToeBase
				{
					OFFSET 0.000000 0.000000 1.515070
					CHANNELS 3 Zrotation Yrotation Xrotation
					End Site
					{
						OFFSET 0.000000 0.000000 0.000000
					}
				}
			}
		}
	}
}
MOTION
Frames: 10
Frame Time: 0.041667
-18.998997 9.280421 43.603834 -172.897312 5.050989 176.715431 5.328706 -2.446656 -22.645089 -1.923870 0.133516 36.766218 0.000000 0.000000 0.000000 -4.420089 4.148717 -12.914507 -0.972422 6.707075 -66.380951 -27.930901 -3.566530 -12.245600 -36.546001 0.562685 37.841000 0.000000 -36.065102 0.000000 12.089600 6.149330 2.838700 29.216999 2.526520 -3.274000 38.950100 8.360280 21.084700 0.000000 34.335201 0.000000 -8.322370 1.245150 -10.095600 8.928860 12.163603 10.657873 0.000000 0.000000 1.730880 -5.918765 7.477777 7.006826 0.000000 0.000000 -9.757130 7.528919 4.312729 8.031812 0.000000 0.000000 6.714370 18.903560 -25.892211 7.769815 0.000000 0.000000 -12.881290 
-18.980818 9.279875 43.596023 -172.912595 5.164898 176.708380 5.423306 -2.306126 -22.706216 -2.053603 0.117615 36.731089 0.000000 0.000000 0.000000 -4.222735 4.110532 -12.751916 -0.917894 6.732108 -66.355271 -27.906601 -3.581040 -12.272500 -36.527699 0.606604 37.731201 0.000000 -35.710800 0.000000 12.094500 6.245110 2.803270 29.262501 2.493050 -3.229020 39.016102 8.446820 21.068600 0.000000 34.545601 0.000000 -8.219300 1.360600 -9.800560 9.048569 12.354078 10.724985 0.000000 0.000000 1.789000 -6.002385 7.427980 6.981495 0.000000 0.000000 -9.777610 7.651488 4.510893 8.137297 0.000000 0.000000 6.629840 18.836905 -26.020525 7.702137 0.000000 0.000000 -12.880080 
-18.963264 9.279706 43.588498 -172.910276 5.352726 176.686958 5.566308 -2.062929 -22.773689 -2.262743 0.111622 36.781480 0.000000 0.000000 0.000000 -4.151131 4.190333 -12.558112 -0.669275 6.798510 -66.155718 -27.816200 -3.570440 -12.289800 -36.532902 0.645181 37.519600 0.000000 -35.324600 0.000000 11.981500 6.276850 2.842040 29.339399 2.509080 -3.240960 39.121101 8.398590 21.072300 0.000000 34.627300 0.000000 -8.211690 1.561780 -9.661610 9.162081 12.428491 10.845121 0.000000 0.000000 1.803730 -6.107018 7.529707 6.949527 0.000000 0.000000 -9.790940 7.737053 4.522745 8.241371 0.000000 0.000000 6.565280 18.706079 -25.899242 7.753621 0.000000 0.000000 -12.890090 
-18.946756 9.278808 43.580717 -172.899146 5.526241 176.682983 5.736603 -1.779795 -22.848646 -2.540501 0.089059 36.822352 0.000000 0.000000 0.000000 -3.779393 4.099925 -12.486322 -0.724823 6.852450 -65.851657 -27.691299 -3.537430 -12.319700 -36.538101 0.733811 37.320499 0.000000 -34.895401 0.000000 11.941500 6.292130 2.751630 29.481600 2.449430 -3.239330 39.233898 8.443170 21.139700 0.000000 34.484100 0.000000 -8.064960 1.411620 -9.766850 9.293105 12.568187 10.929605 0.000000 0.000000 1.862650 -6.225518 7.536509 6.885929 0.000000 0.000000 -9.793320 7.789042 4.368886 8.341059 0.000000 0.000000 6.479310 18.583346 -25.621902 7.830443 0.000000 0.000000 -12.844900 
-18.930564 9.278168 43.575386 -172.881272 5.734821 176.701823 5.885709 -1.545634 -22.888500 -2.729840 0.076421 36.857536 0.000000 0.000000 0.000000 -3.519660 3.958715 -12.474846 -0.768529 6.809859 -65.841425 -27.651501 -3.453400 -12.292300 -36.504101 0.773924 37.056702 0.000000 -34.447399 0.000000 11.839800 6.338750 2.960710 29.622400 2.452990 -3.236760 39.304401 8.390240 21.196899 0.000000 34.214901 0.000000 -7.954450 1.347620 -9.992180 9.400843 12.594440 11.006115 0.000000 0.000000 1.876500 -6.365231 7.661503 6.831562 0.000000 0.000000 -9.800920 7.890956 4.507317 8.357150 0.000000 0.000000 6.487510 18.562762 -25.554186 7.825086 0.000000 0.000000 -12.874710 
-18.914721 9.278013 43.570365 -172.870032 5.979340 176.708260 6.021372 -1.292110 -22.920560 -2.891556 0.097622 36.947763 0.000000 0.000000 0.000000 -3.443167 3.970394 -12.380564 -0.640918 6.827407 -65.651634 -27.570499 -3.370840 -12.421300 -36.509102 0.924461 36.961601 0.000000 -33.986698 0.000000 11.842700 6.400280 3.034230 29.740400 2.460900 -3.253270 39.408699 8.315830 21.197700 0.000000 33.786800 0.000000 -7.667590 1.129740 -10.166900 9.530308 12.767539 11.133874 0.000000 0.000000 1.835640 -6.459826 7.692657 6.850988 0.000000 0.000000 -9.849660 8.008916 4.772348 8.367135 0.000000 0.000000 6.532280 18.549626 -25.576406 7.788787 0.000000 0.000000 -12.870900 
-18.898909 9.277848 43.566034 -172.853466 6.209438 176.681787 6.100545 -1.142227 -22.898409 -2.898384 0.139766 37.037730 0.000000 0.000000 0.000000 -3.393066 3.913389 -12.300373 -0.527876 6.765858 -65.579451 -27.548599 -3.303740 -12.475800 -36.501301 1.097370 36.794998 0.000000 -33.535999 0.000000 11.705900 6.463420 2.686740 29.781300 2.505870 -3.299900 39.527100 8.123510 21.080400 0.000000 33.352402 0.000000 -7.149300 0.581814 -9.980110 9.669056 12.876270 11.300261 0.000000 0.000000 1.774660 -6.601984 7.716964 6.858760 0.000000 0.000000 -9.851120 8.159214 5.154486 8.350819 0.000000 0.000000 6.698910 18.622062 -25.690055 7.649674 0.000000 0.000000 -12.878410 
-18.882381 9.277699 43.561975 -172.851265 6.388211 176.675966 6.114502 -1.066185 -22.886887 -2.835562 0.204426 37.123678 0.000000 0.000000 0.000000 -3.293152 3.843310 -12.171618 -0.460506 6.718958 -65.546039 -27.524300 -3.246090 -12.502100 -36.526001 1.301070 36.598000 0.000000 -33.073399 0.000000 11.636100 6.489790 2.622280 29.815001 2.416750 -3.264110 39.592800 8.047300 21.826599 0.000000 32.435200 0.000000 -8.025120 1.167560 -10.678700 9.790484 12.930696 11.423739 0.000000 0.000000 1.718540 -6.758863 7.721730 6.889752 0.000000 0.000000 -9.842790 8.298116 5.491406 8.302702 0.000000 0.000000 6.888630 18.696015 -25.806669 7.486130 0.000000 0.000000 -12.864480 
-18.866693 9.277778 43.561247 -172.827422 6.624925 176.656672 6.124871 -1.040741 -22.847982 -2.653776 0.283133 37.308532 0.000000 0.000000 0.000000 -3.392265 3.812502 -12.125140 -0.278461 6.613053 -65.379615 -27.568701 -3.179610 -12.539900 -36.527000 1.482520 36.391800 0.000000 -32.648800 0.000000 11.517500 6.545450 2.597710 29.788401 2.435380 -3.254410 39.628399 7.949440 22.014400 0.000000 31.676901 0.000000 -7.661950 1.041540 -10.536300 9.904015 12.836293 11.546788 0.000000 0.000000 1.683520 -6.958551 7.852912 6.872658 0.000000 0.000000 -9.824610 8.400727 5.593521 8.237705 0.000000 0.000000 7.071200 18.624865 -25.698865 7.506977 0.000000 0.000000 -12.954330 
-18.850119 9.277975 43.561244 -172.809750 6.637595 176.651973 6.002227 -1.319509 -22.820392 -2.231461 0.343705 37.528094 0.000000 0.000000 0.000000 -3.608260 3.754484 -12.169133 -0.146162 6.443418 -65.382469 -27.753700 -3.071460 -12.617100 -36.504200 1.627090 36.256699 0.000000 -32.209000 0.000000 11.397300 6.563190 2.342000 29.673000 2.442300 -3.349610 39.659500 7.752220 22.218800 0.000000 30.895000 0.000000 -7.468050 0.980982 -10.254700 9.938037 12.277883 11.535746 0.000000 0.000000 1.718090 -7.161432 8.181270 6.834482 0.000000 0.000000 -9.855660 8.460805 5.333337 8.181079 0.000000 0.000000 7.189220 18.481223 -25.487084 7.594341 0.000000 0.000000 -12.999790 
